<svg xmlns="http://www.w3.org/2000/svg" aria-hidden="true" style="display:none">
  <symbol id="vision-icon-recovery" viewBox="0 0 40 40" fill="none">
    <path d="M20 34V18" stroke="currentColor" stroke-width="2" stroke-linecap="round"/>
    <path d="M14 22c2-6 6-10 6-10s4 4 6 10" stroke="currentColor" stroke-width="2" stroke-linecap="round" stroke-linejoin="round"/>
    <path d="M12 30c3-2 5-2 8-2s5 0 8 2" stroke="currentColor" stroke-width="2" stroke-linecap="round"/>
  </symbol>
  <symbol id="vision-icon-families" viewBox="0 0 40 40" fill="none">
    <circle cx="15" cy="14" r="5" stroke="currentColor" stroke-width="2"/>
    <circle cx="25" cy="16" r="4.5" stroke="currentColor" stroke-width="2"/>
    <path d="M8 30c0-5 3.5-8 7-8s7 3 7 8" stroke="currentColor" stroke-width="2" stroke-linecap="round"/>
    <path d="M18 30c0-4 2.5-7 7-7 2.2 0 4.2.8 5.5 2.5" stroke="currentColor" stroke-width="2" stroke-linecap="round"/>
  </symbol>
  <symbol id="vision-icon-trust" viewBox="0 0 40 40" fill="none">
    <path d="M20 7l11 4.5v9c0 7.5-5 12.5-11 14.5-6-2-11-7-11-14.5v-9L20 7z" stroke="currentColor" stroke-width="2" stroke-linejoin="round"/>
    <path d="M15 20l3.5 3.5L26 16" stroke="currentColor" stroke-width="2" stroke-linecap="round" stroke-linejoin="round"/>
  </symbol>
  <symbol id="vision-icon-evidence" viewBox="0 0 40 40" fill="none">
    <rect x="9" y="11" width="14" height="18" rx="2" stroke="currentColor" stroke-width="2"/>
    <path d="M13 17h6M13 21h6M13 25h4" stroke="currentColor" stroke-width="2" stroke-linecap="round"/>
    <circle cx="27" cy="27" r="6" stroke="currentColor" stroke-width="2"/>
    <path d="M31 31l4 4" stroke="currentColor" stroke-width="2" stroke-linecap="round"/>
  </symbol>
  <symbol id="vision-icon-growth" viewBox="0 0 40 40" fill="none">
    <circle cx="20" cy="20" r="4" stroke="currentColor" stroke-width="2"/>
    <circle cx="20" cy="20" r="9" stroke="currentColor" stroke-width="2" opacity="0.75"/>
    <circle cx="20" cy="20" r="14" stroke="currentColor" stroke-width="2" opacity="0.5"/>
    <path d="M28 12l3-3M28 12h-4M28 12v4" stroke="currentColor" stroke-width="2" stroke-linecap="round" stroke-linejoin="round"/>
  </symbol>
  <symbol id="vision-icon-privacy" viewBox="0 0 40 40" fill="none">
    <path d="M20 7l11 4.5v9c0 7.5-5 12.5-11 14.5-6-2-11-7-11-14.5v-9L20 7z" stroke="currentColor" stroke-width="2" stroke-linejoin="round"/>
    <rect x="17" y="18" width="6" height="7" rx="1.5" stroke="currentColor" stroke-width="2"/>
    <circle cx="20" cy="21.5" r="1" fill="currentColor"/>
  </symbol>
</svg>
